<mxfile host="Electron" agent="Mozilla/5.0 (Windows NT 10.0; Win64; x64) AppleWebKit/537.36 (KHTML, like Gecko) draw.io/26.1.1 Chrome/132.0.6834.210 Electron/34.3.3 Safari/537.36" version="26.1.1">
  <diagram name="Página-1" id="f-NdPnHua4ITHNkwOEZq">
    <mxGraphModel dx="1136" dy="554" grid="1" gridSize="10" guides="1" tooltips="1" connect="1" arrows="1" fold="1" page="1" pageScale="1" pageWidth="850" pageHeight="1100" math="0" shadow="0">
      <root>
        <mxCell id="0" />
        <mxCell id="1" parent="0" />
        <mxCell id="KfyVLCcBb3r_EqWJSftU-1" value="Autenticación de usuario" style="rounded=0;whiteSpace=wrap;html=1;fontFamily=Arial;fontSize=10;strokeColor=#000000;fillColor=#FFFFFF;" vertex="1" parent="1">
          <mxGeometry x="50" y="114" width="140" height="60" as="geometry" />
        </mxCell>
        <mxCell id="KfyVLCcBb3r_EqWJSftU-2" value="Identificación de rol" style="rounded=0;whiteSpace=wrap;html=1;fontFamily=Arial;fontSize=10;strokeColor=#000000;fillColor=#FFFFFF;" vertex="1" parent="1">
          <mxGeometry x="50" y="197" width="140" height="50" as="geometry" />
        </mxCell>
        <mxCell id="KfyVLCcBb3r_EqWJSftU-3" style="edgeStyle=orthogonalEdgeStyle;rounded=0;orthogonalLoop=1;jettySize=auto;html=1;" edge="1" parent="1" source="KfyVLCcBb3r_EqWJSftU-4" target="KfyVLCcBb3r_EqWJSftU-5">
          <mxGeometry relative="1" as="geometry" />
        </mxCell>
        <mxCell id="KfyVLCcBb3r_EqWJSftU-4" value="¿Rol = Paciente?" style="rhombus;whiteSpace=wrap;html=1;fontFamily=Arial;fontSize=10;strokeColor=#000000;fillColor=#FFFFFF;" vertex="1" parent="1">
          <mxGeometry x="50" y="275" width="140" height="70" as="geometry" />
        </mxCell>
        <mxCell id="KfyVLCcBb3r_EqWJSftU-5" value="Menú Paciente: • Solicitar cita • Consultar resultados" style="rounded=0;whiteSpace=wrap;html=1;fontFamily=Arial;fontSize=10;strokeColor=#000000;fillColor=#FFFFFF;" vertex="1" parent="1">
          <mxGeometry x="51" y="370" width="139" height="80" as="geometry" />
        </mxCell>
        <mxCell id="KfyVLCcBb3r_EqWJSftU-6" style="edgeStyle=orthogonalEdgeStyle;rounded=0;orthogonalLoop=1;jettySize=auto;html=1;entryX=0.5;entryY=0;entryDx=0;entryDy=0;" edge="1" parent="1" source="KfyVLCcBb3r_EqWJSftU-7" target="KfyVLCcBb3r_EqWJSftU-8">
          <mxGeometry relative="1" as="geometry" />
        </mxCell>
        <mxCell id="KfyVLCcBb3r_EqWJSftU-7" value="¿Acción seleccionada?" style="rhombus;whiteSpace=wrap;html=1;fontFamily=Arial;fontSize=10;strokeColor=#000000;fillColor=#FFFFFF;" vertex="1" parent="1">
          <mxGeometry x="62" y="472" width="120" height="60" as="geometry" />
        </mxCell>
        <mxCell id="KfyVLCcBb3r_EqWJSftU-59" style="edgeStyle=orthogonalEdgeStyle;rounded=0;orthogonalLoop=1;jettySize=auto;html=1;" edge="1" parent="1" source="KfyVLCcBb3r_EqWJSftU-8">
          <mxGeometry relative="1" as="geometry">
            <mxPoint x="115" y="670" as="targetPoint" />
          </mxGeometry>
        </mxCell>
        <mxCell id="KfyVLCcBb3r_EqWJSftU-8" value="Solicitar cita: Ver disponibilidad" style="rounded=0;whiteSpace=wrap;html=1;fontFamily=Arial;fontSize=10;strokeColor=#000000;fillColor=#FFFFFF;" vertex="1" parent="1">
          <mxGeometry x="50" y="548" width="130" height="70" as="geometry" />
        </mxCell>
        <mxCell id="KfyVLCcBb3r_EqWJSftU-9" value="Particular: Enviar solicitud directa" style="rounded=0;whiteSpace=wrap;html=1;fontFamily=Arial;fontSize=10;strokeColor=#000000;fillColor=#FFFFFF;" vertex="1" parent="1">
          <mxGeometry x="50" y="762" width="130" height="70" as="geometry" />
        </mxCell>
        <mxCell id="KfyVLCcBb3r_EqWJSftU-10" value="EPS (prepagada/contributiva/subsidiada): Adjuntar Orden médica + Autorización EPS" style="rounded=0;whiteSpace=wrap;html=1;fontFamily=Arial;fontSize=10;strokeColor=#000000;fillColor=#FFFFFF;" vertex="1" parent="1">
          <mxGeometry x="269" y="694" width="170" height="90" as="geometry" />
        </mxCell>
        <mxCell id="KfyVLCcBb3r_EqWJSftU-11" value="Esperar validación de Recepción" style="rounded=0;whiteSpace=wrap;html=1;fontFamily=Arial;fontSize=10;strokeColor=#000000;fillColor=#FFFFFF;" vertex="1" parent="1">
          <mxGeometry x="284" y="822" width="140" height="60" as="geometry" />
        </mxCell>
        <mxCell id="KfyVLCcBb3r_EqWJSftU-12" value="Consultar resultados: Ingresar Nº de examen → Ver/Descargar/Imprimir" style="rounded=0;whiteSpace=wrap;html=1;fontFamily=Arial;fontSize=10;strokeColor=#000000;fillColor=#FFFFFF;" vertex="1" parent="1">
          <mxGeometry x="152" y="901" width="190" height="90" as="geometry" />
        </mxCell>
        <mxCell id="KfyVLCcBb3r_EqWJSftU-13" value="Fin (Paciente)" style="ellipse;whiteSpace=wrap;html=1;fontFamily=Arial;fontSize=10;strokeColor=#000000;fillColor=#FFFFFF;" vertex="1" parent="1">
          <mxGeometry x="177" y="1013" width="140" height="50" as="geometry" />
        </mxCell>
        <mxCell id="KfyVLCcBb3r_EqWJSftU-14" value="Recepción de solicitud de cita" style="rounded=0;whiteSpace=wrap;html=1;fontFamily=Arial;fontSize=10;strokeColor=#000000;fillColor=#FFFFFF;" vertex="1" parent="1">
          <mxGeometry x="506" y="110" width="169" height="60" as="geometry" />
        </mxCell>
        <mxCell id="KfyVLCcBb3r_EqWJSftU-15" value="¿Documentación completa?" style="rhombus;whiteSpace=wrap;html=1;fontFamily=Arial;fontSize=10;strokeColor=#000000;fillColor=#FFFFFF;" vertex="1" parent="1">
          <mxGeometry x="507" y="200" width="158" height="70" as="geometry" />
        </mxCell>
        <mxCell id="KfyVLCcBb3r_EqWJSftU-16" style="edgeStyle=orthogonalEdgeStyle;rounded=0;orthogonalLoop=1;jettySize=auto;html=1;entryX=0.5;entryY=0;entryDx=0;entryDy=0;" edge="1" parent="1" source="KfyVLCcBb3r_EqWJSftU-17" target="KfyVLCcBb3r_EqWJSftU-18">
          <mxGeometry relative="1" as="geometry" />
        </mxCell>
        <mxCell id="KfyVLCcBb3r_EqWJSftU-17" value="Notificar faltantes al paciente" style="rounded=0;whiteSpace=wrap;html=1;fontFamily=Arial;fontSize=10;strokeColor=#000000;fillColor=#FFFFFF;" vertex="1" parent="1">
          <mxGeometry x="507" y="300" width="168" height="50" as="geometry" />
        </mxCell>
        <mxCell id="KfyVLCcBb3r_EqWJSftU-18" value="Validar y aprobar cita" style="rounded=0;whiteSpace=wrap;html=1;fontFamily=Arial;fontSize=10;strokeColor=#000000;fillColor=#FFFFFF;" vertex="1" parent="1">
          <mxGeometry x="507" y="390" width="168" height="60" as="geometry" />
        </mxCell>
        <mxCell id="KfyVLCcBb3r_EqWJSftU-19" value="Enviar confirmación + Preparación de toma de muestra" style="rounded=0;whiteSpace=wrap;html=1;fontFamily=Arial;fontSize=10;strokeColor=#000000;fillColor=#FFFFFF;" vertex="1" parent="1">
          <mxGeometry x="507" y="480" width="168" height="80" as="geometry" />
        </mxCell>
        <mxCell id="KfyVLCcBb3r_EqWJSftU-20" value="Registrar auditoría de atención" style="rounded=0;whiteSpace=wrap;html=1;fontFamily=Arial;fontSize=10;strokeColor=#000000;fillColor=#FFFFFF;" vertex="1" parent="1">
          <mxGeometry x="507" y="590" width="178" height="60" as="geometry" />
        </mxCell>
        <mxCell id="KfyVLCcBb3r_EqWJSftU-21" value="Fin (Recepción)" style="ellipse;whiteSpace=wrap;html=1;fontFamily=Arial;fontSize=10;strokeColor=#000000;fillColor=#FFFFFF;" vertex="1" parent="1">
          <mxGeometry x="507" y="680" width="188" height="50" as="geometry" />
        </mxCell>
        <mxCell id="KfyVLCcBb3r_EqWJSftU-22" value="Validar autenticación y roles" style="rounded=0;whiteSpace=wrap;html=1;fontFamily=Arial;fontSize=10;strokeColor=#000000;fillColor=#FFFFFF;" vertex="1" parent="1">
          <mxGeometry x="284" y="110" width="152" height="60" as="geometry" />
        </mxCell>
        <mxCell id="KfyVLCcBb3r_EqWJSftU-23" value="Gestionar agenda y disponibilidad (validar cupos/conflictos)" style="rounded=0;whiteSpace=wrap;html=1;fontFamily=Arial;fontSize=10;strokeColor=#000000;fillColor=#FFFFFF;" vertex="1" parent="1">
          <mxGeometry x="284" y="200" width="152" height="90" as="geometry" />
        </mxCell>
        <mxCell id="KfyVLCcBb3r_EqWJSftU-24" value="Notificaciones automáticas (confirmación/rechazo/recordatorios)" style="rounded=0;whiteSpace=wrap;html=1;fontFamily=Arial;fontSize=10;strokeColor=#000000;fillColor=#FFFFFF;" vertex="1" parent="1">
          <mxGeometry x="280" y="320" width="156" height="90" as="geometry" />
        </mxCell>
        <mxCell id="KfyVLCcBb3r_EqWJSftU-25" value="Registrar logs y bitácoras" style="rounded=0;whiteSpace=wrap;html=1;fontFamily=Arial;fontSize=10;strokeColor=#000000;fillColor=#FFFFFF;" vertex="1" parent="1">
          <mxGeometry x="284" y="440" width="152" height="60" as="geometry" />
        </mxCell>
        <mxCell id="KfyVLCcBb3r_EqWJSftU-26" value="Auditoría del proceso (cierre general)" style="rounded=0;whiteSpace=wrap;html=1;fontFamily=Arial;fontSize=10;strokeColor=#000000;fillColor=#FFFFFF;" vertex="1" parent="1">
          <mxGeometry x="284" y="530" width="152" height="70" as="geometry" />
        </mxCell>
        <mxCell id="KfyVLCcBb3r_EqWJSftU-27" value="Fin (Sistema)" style="ellipse;whiteSpace=wrap;html=1;fontFamily=Arial;fontSize=10;strokeColor=#000000;fillColor=#FFFFFF;" vertex="1" parent="1">
          <mxGeometry x="284" y="630" width="152" height="50" as="geometry" />
        </mxCell>
        <mxCell id="KfyVLCcBb3r_EqWJSftU-28" value="" style="edgeStyle=orthogonalEdgeStyle;rounded=0;jettySize=auto;orthogonalLoop=1;endArrow=block;endFill=1;strokeColor=#000000;" edge="1" parent="1" target="KfyVLCcBb3r_EqWJSftU-1">
          <mxGeometry relative="1" as="geometry">
            <mxPoint x="344" y="65" as="sourcePoint" />
          </mxGeometry>
        </mxCell>
        <mxCell id="KfyVLCcBb3r_EqWJSftU-29" value="" style="edgeStyle=orthogonalEdgeStyle;rounded=0;jettySize=auto;orthogonalLoop=1;endArrow=block;endFill=1;strokeColor=#000000;" edge="1" parent="1" source="KfyVLCcBb3r_EqWJSftU-1" target="KfyVLCcBb3r_EqWJSftU-2">
          <mxGeometry relative="1" as="geometry" />
        </mxCell>
        <mxCell id="KfyVLCcBb3r_EqWJSftU-30" value="" style="edgeStyle=orthogonalEdgeStyle;rounded=0;jettySize=auto;orthogonalLoop=1;endArrow=block;endFill=1;strokeColor=#000000;" edge="1" parent="1" source="KfyVLCcBb3r_EqWJSftU-2" target="KfyVLCcBb3r_EqWJSftU-4">
          <mxGeometry relative="1" as="geometry" />
        </mxCell>
        <mxCell id="KfyVLCcBb3r_EqWJSftU-31" value="" style="edgeStyle=orthogonalEdgeStyle;rounded=0;jettySize=auto;orthogonalLoop=1;endArrow=block;endFill=1;strokeColor=#000000;" edge="1" parent="1" source="KfyVLCcBb3r_EqWJSftU-5" target="KfyVLCcBb3r_EqWJSftU-7">
          <mxGeometry relative="1" as="geometry" />
        </mxCell>
        <mxCell id="KfyVLCcBb3r_EqWJSftU-34" value="" style="edgeStyle=orthogonalEdgeStyle;rounded=0;jettySize=auto;orthogonalLoop=1;endArrow=block;endFill=1;strokeColor=#000000;" edge="1" parent="1" target="KfyVLCcBb3r_EqWJSftU-9">
          <mxGeometry relative="1" as="geometry">
            <mxPoint x="116" y="740" as="sourcePoint" />
          </mxGeometry>
        </mxCell>
        <mxCell id="KfyVLCcBb3r_EqWJSftU-35" value="" style="edgeStyle=orthogonalEdgeStyle;rounded=0;jettySize=auto;orthogonalLoop=1;endArrow=block;endFill=1;strokeColor=#000000;" edge="1" parent="1" target="KfyVLCcBb3r_EqWJSftU-10">
          <mxGeometry relative="1" as="geometry">
            <mxPoint x="186" y="705" as="sourcePoint" />
          </mxGeometry>
        </mxCell>
        <mxCell id="KfyVLCcBb3r_EqWJSftU-36" value="" style="edgeStyle=orthogonalEdgeStyle;rounded=0;jettySize=auto;orthogonalLoop=1;endArrow=block;endFill=1;strokeColor=#000000;" edge="1" parent="1" source="KfyVLCcBb3r_EqWJSftU-9" target="KfyVLCcBb3r_EqWJSftU-11">
          <mxGeometry relative="1" as="geometry" />
        </mxCell>
        <mxCell id="KfyVLCcBb3r_EqWJSftU-37" value="" style="edgeStyle=orthogonalEdgeStyle;rounded=0;jettySize=auto;orthogonalLoop=1;endArrow=block;endFill=1;strokeColor=#000000;" edge="1" parent="1" source="KfyVLCcBb3r_EqWJSftU-10" target="KfyVLCcBb3r_EqWJSftU-11">
          <mxGeometry relative="1" as="geometry" />
        </mxCell>
        <mxCell id="KfyVLCcBb3r_EqWJSftU-38" value="" style="edgeStyle=orthogonalEdgeStyle;rounded=0;jettySize=auto;orthogonalLoop=1;endArrow=block;endFill=1;strokeColor=#000000;" edge="1" parent="1" source="KfyVLCcBb3r_EqWJSftU-12" target="KfyVLCcBb3r_EqWJSftU-13">
          <mxGeometry relative="1" as="geometry" />
        </mxCell>
        <mxCell id="KfyVLCcBb3r_EqWJSftU-39" value="" style="edgeStyle=orthogonalEdgeStyle;rounded=0;jettySize=auto;orthogonalLoop=1;endArrow=block;endFill=1;strokeColor=#000000;" edge="1" parent="1">
          <mxGeometry relative="1" as="geometry">
            <mxPoint x="586" y="170" as="sourcePoint" />
            <mxPoint x="586" y="200" as="targetPoint" />
          </mxGeometry>
        </mxCell>
        <mxCell id="KfyVLCcBb3r_EqWJSftU-40" value="" style="edgeStyle=orthogonalEdgeStyle;rounded=0;jettySize=auto;orthogonalLoop=1;endArrow=block;endFill=1;strokeColor=#000000;" edge="1" parent="1">
          <mxGeometry relative="1" as="geometry">
            <mxPoint x="586" y="270" as="sourcePoint" />
            <mxPoint x="586" y="300" as="targetPoint" />
          </mxGeometry>
        </mxCell>
        <mxCell id="KfyVLCcBb3r_EqWJSftU-41" value="" style="edgeStyle=orthogonalEdgeStyle;rounded=0;jettySize=auto;orthogonalLoop=1;endArrow=block;endFill=1;strokeColor=#000000;" edge="1" parent="1">
          <mxGeometry relative="1" as="geometry">
            <mxPoint x="586" y="450" as="sourcePoint" />
            <mxPoint x="586" y="480" as="targetPoint" />
          </mxGeometry>
        </mxCell>
        <mxCell id="KfyVLCcBb3r_EqWJSftU-42" value="" style="edgeStyle=orthogonalEdgeStyle;rounded=0;jettySize=auto;orthogonalLoop=1;endArrow=block;endFill=1;strokeColor=#000000;" edge="1" parent="1">
          <mxGeometry relative="1" as="geometry">
            <mxPoint x="586" y="560" as="sourcePoint" />
            <mxPoint x="586" y="590" as="targetPoint" />
          </mxGeometry>
        </mxCell>
        <mxCell id="KfyVLCcBb3r_EqWJSftU-43" value="" style="edgeStyle=orthogonalEdgeStyle;rounded=0;jettySize=auto;orthogonalLoop=1;endArrow=block;endFill=1;strokeColor=#000000;" edge="1" parent="1">
          <mxGeometry relative="1" as="geometry">
            <mxPoint x="586" y="650" as="sourcePoint" />
            <mxPoint x="586" y="680" as="targetPoint" />
          </mxGeometry>
        </mxCell>
        <mxCell id="KfyVLCcBb3r_EqWJSftU-44" value="" style="edgeStyle=orthogonalEdgeStyle;rounded=0;jettySize=auto;orthogonalLoop=1;endArrow=block;endFill=1;strokeColor=#000000;" edge="1" parent="1" source="KfyVLCcBb3r_EqWJSftU-22" target="KfyVLCcBb3r_EqWJSftU-23">
          <mxGeometry relative="1" as="geometry" />
        </mxCell>
        <mxCell id="KfyVLCcBb3r_EqWJSftU-45" value="" style="edgeStyle=orthogonalEdgeStyle;rounded=0;jettySize=auto;orthogonalLoop=1;endArrow=block;endFill=1;strokeColor=#000000;" edge="1" parent="1" source="KfyVLCcBb3r_EqWJSftU-23" target="KfyVLCcBb3r_EqWJSftU-24">
          <mxGeometry relative="1" as="geometry" />
        </mxCell>
        <mxCell id="KfyVLCcBb3r_EqWJSftU-46" value="" style="edgeStyle=orthogonalEdgeStyle;rounded=0;jettySize=auto;orthogonalLoop=1;endArrow=block;endFill=1;strokeColor=#000000;" edge="1" parent="1" source="KfyVLCcBb3r_EqWJSftU-24" target="KfyVLCcBb3r_EqWJSftU-25">
          <mxGeometry relative="1" as="geometry" />
        </mxCell>
        <mxCell id="KfyVLCcBb3r_EqWJSftU-47" value="" style="edgeStyle=orthogonalEdgeStyle;rounded=0;jettySize=auto;orthogonalLoop=1;endArrow=block;endFill=1;strokeColor=#000000;" edge="1" parent="1" source="KfyVLCcBb3r_EqWJSftU-25" target="KfyVLCcBb3r_EqWJSftU-26">
          <mxGeometry relative="1" as="geometry" />
        </mxCell>
        <mxCell id="KfyVLCcBb3r_EqWJSftU-48" value="" style="edgeStyle=orthogonalEdgeStyle;rounded=0;jettySize=auto;orthogonalLoop=1;endArrow=block;endFill=1;strokeColor=#000000;" edge="1" parent="1" source="KfyVLCcBb3r_EqWJSftU-26" target="KfyVLCcBb3r_EqWJSftU-27">
          <mxGeometry relative="1" as="geometry" />
        </mxCell>
        <mxCell id="KfyVLCcBb3r_EqWJSftU-49" value="" style="edgeStyle=orthogonalEdgeStyle;rounded=0;jettySize=auto;orthogonalLoop=1;endArrow=block;endFill=1;strokeColor=#000000;" edge="1" parent="1" source="KfyVLCcBb3r_EqWJSftU-11" target="KfyVLCcBb3r_EqWJSftU-14">
          <mxGeometry relative="1" as="geometry">
            <Array as="points">
              <mxPoint x="490" y="894" />
              <mxPoint x="490" y="140" />
            </Array>
          </mxGeometry>
        </mxCell>
        <mxCell id="KfyVLCcBb3r_EqWJSftU-50" value="" style="edgeStyle=orthogonalEdgeStyle;rounded=0;jettySize=auto;orthogonalLoop=1;endArrow=block;endFill=1;strokeColor=#000000;" edge="1" parent="1" source="KfyVLCcBb3r_EqWJSftU-18" target="KfyVLCcBb3r_EqWJSftU-24">
          <mxGeometry relative="1" as="geometry" />
        </mxCell>
        <mxCell id="KfyVLCcBb3r_EqWJSftU-51" value="" style="edgeStyle=orthogonalEdgeStyle;rounded=0;jettySize=auto;orthogonalLoop=1;endArrow=block;endFill=1;strokeColor=#000000;" edge="1" parent="1" source="KfyVLCcBb3r_EqWJSftU-17" target="KfyVLCcBb3r_EqWJSftU-24">
          <mxGeometry relative="1" as="geometry" />
        </mxCell>
        <mxCell id="KfyVLCcBb3r_EqWJSftU-52" style="edgeStyle=orthogonalEdgeStyle;rounded=0;orthogonalLoop=1;jettySize=auto;html=1;entryX=0;entryY=0.5;entryDx=0;entryDy=0;" edge="1" parent="1" source="KfyVLCcBb3r_EqWJSftU-4" target="KfyVLCcBb3r_EqWJSftU-22">
          <mxGeometry relative="1" as="geometry" />
        </mxCell>
        <mxCell id="KfyVLCcBb3r_EqWJSftU-53" value="Inicio" style="ellipse;whiteSpace=wrap;html=1;aspect=fixed;" vertex="1" parent="1">
          <mxGeometry x="331" y="20" width="80" height="80" as="geometry" />
        </mxCell>
        <mxCell id="KfyVLCcBb3r_EqWJSftU-54" value="¿Tipo de afiliación?" style="rhombus;whiteSpace=wrap;html=1;fontFamily=Arial;fontSize=10;strokeColor=#000000;fillColor=#FFFFFF;" vertex="1" parent="1">
          <mxGeometry x="47" y="669" width="140" height="70" as="geometry" />
        </mxCell>
        <mxCell id="KfyVLCcBb3r_EqWJSftU-61" value="&lt;h1 style=&quot;margin-top: 0px;&quot;&gt;&lt;br&gt;&lt;/h1&gt;&lt;p&gt;Fabián Gustavo Frias Aguilar&lt;/p&gt;" style="text;html=1;whiteSpace=wrap;overflow=hidden;rounded=0;" vertex="1" parent="1">
          <mxGeometry x="665" y="1008" width="180" height="60" as="geometry" />
        </mxCell>
        <mxCell id="KfyVLCcBb3r_EqWJSftU-62" style="edgeStyle=orthogonalEdgeStyle;rounded=0;orthogonalLoop=1;jettySize=auto;html=1;entryX=0.545;entryY=0.019;entryDx=0;entryDy=0;entryPerimeter=0;" edge="1" parent="1" source="KfyVLCcBb3r_EqWJSftU-7" target="KfyVLCcBb3r_EqWJSftU-12">
          <mxGeometry relative="1" as="geometry">
            <Array as="points">
              <mxPoint x="247" y="502" />
              <mxPoint x="247" y="717" />
              <mxPoint x="250" y="717" />
              <mxPoint x="250" y="903" />
            </Array>
          </mxGeometry>
        </mxCell>
      </root>
    </mxGraphModel>
  </diagram>
</mxfile>
